<?xml version="1.0" standalone="no"?>
<!DOCTYPE svg PUBLIC "-//W3C//DTD SVG 20010904//EN"
 "http://www.w3.org/TR/2001/REC-SVG-20010904/DTD/svg10.dtd">
<svg version="1.0" xmlns="http://www.w3.org/2000/svg"
 width="820.000000pt" height="484.000000pt" viewBox="0 0 820.000000 484.000000"
 preserveAspectRatio="xMidYMid meet">
<metadata>
Created by potrace 1.15, written by Peter Selinger 2001-2017
</metadata>
<g transform="translate(0.000000,484.000000) scale(0.100000,-0.100000)"
fill="#000000" stroke="none">
<path d="M5716 3121 c-341 -715 -622 -1298 -625 -1295 -3 3 -324 582 -712
1287 l-706 1282 -875 3 -875 2 -12 -27 c-7 -16 -129 -300 -271 -633 -925
-2169 -1482 -3475 -1508 -3538 l-31 -72 872 0 872 0 526 1236 c290 679 530
1236 533 1237 4 1 315 -558 691 -1243 l684 -1245 873 -3 874 -2 23 47 c169
343 2040 4227 2037 4230 -2 2 -428 -474 -946 -1057 -519 -583 -945 -1058 -947
-1056 -2 2 31 466 72 1032 42 566 74 1049 73 1073 -3 40 -49 -54 -622 -1258z"/>
</g>
</svg>
